<svg width="150" height="46" viewBox="0 0 150 46" fill="none" xmlns="http://www.w3.org/2000/svg">
<g clip-path="url(#clip0_205_693)">
<path d="M136.899 12.172H138.919L143.097 4.64145H150L144.163 14.452L149.971 24.839H142.509L138.749 17.5407H136.899V24.839H130.278V4.64145H136.899V12.172Z" fill="#000072"/>
<path d="M146.324 30.7382H149.587V31.4688H148.383V34.6075H147.523V31.4688H146.324V30.7382Z" fill="#000072"/>
<path d="M143.959 32.2975H145.707V32.9941H143.959V33.8889H146.007V34.6095H143.093V30.7382H145.939V31.4548H143.959V32.2975Z" fill="#000072"/>
<path d="M139.281 30.7382H142.544V31.4688H141.34V34.6075H140.48V31.4688H139.281V30.7382Z" fill="#000072"/>
<path d="M138.732 34.6075H137.874V32.0933L136.078 34.6075H135.254V30.7382H136.12V33.2604L137.915 30.7382H138.732V34.6075Z" fill="#000072"/>
<path d="M134.686 31.3567L134.125 31.8872C134.011 31.7438 133.866 31.6287 133.702 31.5504C133.539 31.4721 133.36 31.4326 133.179 31.4348C132.961 31.4305 132.746 31.485 132.555 31.5929C132.376 31.6951 132.228 31.847 132.129 32.0313C132.028 32.2293 131.975 32.4494 131.975 32.6728C131.975 32.8963 132.028 33.1164 132.129 33.3144C132.228 33.4987 132.376 33.6506 132.555 33.7528C132.746 33.8613 132.961 33.9165 133.179 33.9129C133.361 33.9149 133.54 33.8744 133.704 33.7947C133.868 33.7149 134.012 33.5979 134.125 33.4525L134.686 33.983C134.507 34.207 134.278 34.3834 134.018 34.4974C133.738 34.6193 133.435 34.68 133.131 34.6756C132.768 34.6808 132.41 34.592 132.09 34.4174C131.787 34.2529 131.534 34.0056 131.36 33.7027C131.185 33.389 131.093 33.0336 131.093 32.6718C131.093 32.3101 131.185 31.9547 131.36 31.6409C131.535 31.3391 131.787 31.0926 132.09 30.9283C132.411 30.7516 132.77 30.6608 133.135 30.6641C133.439 30.6601 133.741 30.7201 134.022 30.8402C134.279 30.9541 134.506 31.1282 134.686 31.3487" fill="#000072"/>
<path d="M130.523 31.3947C130.653 31.6205 130.722 31.878 130.722 32.1404C130.722 32.4028 130.653 32.6603 130.523 32.886C130.385 33.1029 130.187 33.2724 129.955 33.3725C129.681 33.49 129.386 33.5473 129.089 33.5406H128.33V34.6075H127.458V30.7382H129.089C129.386 30.7302 129.681 30.7883 129.955 30.9083C130.186 31.0109 130.383 31.1798 130.523 31.3947ZM129.84 32.1434C129.847 32.05 129.833 31.9562 129.799 31.8691C129.765 31.7821 129.713 31.7041 129.645 31.641C129.472 31.5133 129.261 31.4523 129.048 31.4688H128.34V32.812H129.048C129.261 32.8257 129.471 32.7643 129.645 32.6378C129.713 32.5764 129.765 32.4998 129.799 32.4141C129.833 32.3283 129.847 32.2357 129.84 32.1434Z" fill="#000072"/>
<path d="M109.771 9.0553H116.083V16.1835L121.386 9.0553H127.221V24.839H120.907V17.6848L115.633 24.839H109.771V9.0553Z" fill="#000072"/>
<path d="M124.706 32.2975H126.454V32.9941H124.706V33.8889H126.754V34.6095H123.84V30.7382H126.686V31.4548H124.706V32.2975Z" fill="#000072"/>
<path d="M123.153 33.5206C123.159 33.6759 123.128 33.8303 123.061 33.9701C122.995 34.1098 122.896 34.2305 122.774 34.3213C122.451 34.5333 122.071 34.6336 121.69 34.6075H119.835V30.7382H121.586C121.945 30.7159 122.303 30.8066 122.61 30.9984C122.728 31.0789 122.823 31.1895 122.887 31.3193C122.951 31.4491 122.981 31.5938 122.974 31.739C122.978 31.9179 122.929 32.0937 122.834 32.2435C122.738 32.3937 122.603 32.5136 122.445 32.5898C122.65 32.646 122.834 32.7654 122.972 32.9321C123.097 33.101 123.161 33.3087 123.155 33.5206M122.272 33.4465C122.272 33.1263 122.077 32.9661 121.658 32.9661H120.703V33.945H121.658C122.069 33.945 122.272 33.7788 122.272 33.4465ZM121.945 32.2235C121.99 32.1792 122.026 32.1262 122.051 32.0676C122.076 32.0089 122.089 31.9457 122.09 31.8817C122.091 31.8176 122.08 31.754 122.057 31.6945C122.034 31.635 122 31.5807 121.956 31.5349L121.945 31.5228C121.82 31.4332 121.668 31.3901 121.516 31.4007H120.705V32.3416H121.516C121.669 32.3522 121.82 32.3107 121.947 32.2235" fill="#000072"/>
<path d="M118.899 34.6075H118.04V32.0933L116.244 34.6075H115.421V30.7382H116.287V33.2604L118.083 30.7382H118.899V34.6075Z" fill="#000072"/>
<path d="M115.386 40.8367V38.3206L113.59 40.8367H112.767V36.9674H113.633V39.4896L115.429 36.9674H116.248V40.8367H115.386Z" fill="#000072"/>
<path d="M111.027 30.7382H111.899V32.2635H113.609V30.7382H114.481V34.6075H113.609V33.0201H111.899V34.6075H111.027V30.7382Z" fill="#000072"/>
<path d="M110.973 40.8367V38.3206L109.178 40.8367H108.355V36.9674H109.221V39.4896L111.017 36.9674H111.833V40.8367H110.973Z" fill="#000072"/>
<path d="M110.614 30.7382L109.013 33.8008C108.882 34.0672 108.691 34.2972 108.456 34.4714C108.248 34.6191 108.002 34.6981 107.75 34.6976C107.539 34.6949 107.331 34.6501 107.136 34.5655L107.347 33.8849C107.468 33.9269 107.594 33.9512 107.722 33.957C107.824 33.9577 107.924 33.93 108.012 33.8769C108.108 33.811 108.189 33.725 108.25 33.6247L108.281 33.5806L106.798 30.7382H107.728L108.728 32.818L109.76 30.7382H110.614Z" fill="#000072"/>
<path d="M99.6147 4.64145L108.205 24.839H101.355L100.031 21.32H92.5736L91.2561 24.839H84.5225L93.1068 4.64145H99.6147ZM98.2135 16.4137L96.3063 11.3353L94.3971 16.4137H98.2135Z" fill="#000072"/>
<path d="M107.195 37.6921C107.504 37.9894 107.686 38.4011 107.701 38.8365C107.716 39.2719 107.562 39.6954 107.273 40.014C107.247 40.0421 107.222 40.0681 107.195 40.0941C106.856 40.3864 106.372 40.5505 105.737 40.5845V41.0029H104.935V40.5785C104.297 40.5405 103.809 40.3783 103.47 40.0821C103.161 39.7882 102.977 39.3802 102.96 38.9476C102.943 38.5149 103.094 38.0929 103.378 37.7741C103.408 37.7421 103.439 37.7101 103.47 37.68C103.809 37.3918 104.297 37.2257 104.935 37.1856V36.7853H105.737V37.1856C106.372 37.2217 106.856 37.3858 107.195 37.684M106.586 39.5777C106.681 39.4903 106.756 39.3819 106.804 39.2605C106.853 39.1392 106.874 39.008 106.866 38.8771C106.866 38.2866 106.488 37.9603 105.737 37.8942V39.8779C106.043 39.8691 106.339 39.7643 106.586 39.5777ZM104.935 39.8779V37.8942C104.629 37.9026 104.332 38.0058 104.083 38.1905C103.989 38.2766 103.915 38.3838 103.867 38.5038C103.819 38.6239 103.798 38.7536 103.807 38.8831C103.807 39.4656 104.184 39.7978 104.935 39.8839" fill="#000072"/>
<path d="M104.76 34.6075H103.9V32.0933L102.104 34.6075H101.281V30.7382H102.147V33.2604L103.943 30.7382H104.76V34.6075Z" fill="#000072"/>
<path d="M103.458 29.6432H104.061C104.067 29.7619 104.046 29.8803 104 29.9893C103.953 30.0983 103.883 30.195 103.794 30.2718C103.583 30.4225 103.329 30.4984 103.071 30.488V30.0456C103.172 30.0434 103.269 30.0075 103.348 29.9435C103.387 29.9047 103.418 29.858 103.439 29.8063C103.46 29.7545 103.469 29.699 103.468 29.6432" fill="#000072"/>
<path d="M103.071 30.0456V30.4879H103.009C102.32 30.4879 101.974 30.2037 101.966 29.6412H102.561C102.561 29.9094 102.719 30.0416 103.009 30.0416H103.061" fill="#000072"/>
<path d="M101.117 36.9674L102.8 40.8367H101.888L101.553 40.008H99.8013L99.4685 40.8367H98.5771L100.253 36.9674H101.117ZM101.28 39.3274L100.681 37.8462L100.085 39.3274H101.28Z" fill="#000072"/>
<path d="M100.346 30.7382H99.4805V34.6075H100.346V30.7382Z" fill="#000072"/>
<path d="M99.0015 33.2664C99.0131 33.4539 98.9826 33.6417 98.9124 33.8153C98.8422 33.9888 98.7342 34.1434 98.5967 34.2672C98.2667 34.5157 97.8625 34.6375 97.4543 34.6115H95.7495V30.7382H96.6155V32.0093H97.573C97.9501 31.9846 98.3237 32.0958 98.6298 32.3235C98.7567 32.4404 98.8558 32.5855 98.9196 32.748C98.9833 32.9104 99.01 33.0857 98.9976 33.2604M98.1199 33.2764C98.1199 32.876 97.8825 32.6758 97.4018 32.6758H96.6233V33.949H97.4018C97.5925 33.961 97.781 33.9004 97.9311 33.7788C97.9971 33.7155 98.0488 33.638 98.0824 33.5519C98.1161 33.4658 98.1308 33.3731 98.1257 33.2804" fill="#000072"/>
<path d="M98.4177 37.626C98.5452 37.8522 98.6123 38.1091 98.6123 38.3706C98.6123 38.6321 98.5452 38.889 98.4177 39.1153C98.2794 39.3317 98.0816 39.501 97.8495 39.6017C97.5756 39.7202 97.2804 39.7775 96.9834 39.7698H96.2244V40.8367H95.3604V36.9674H96.9893C97.2865 36.9595 97.5819 37.0175 97.8553 37.1376C98.0871 37.2397 98.2847 37.4095 98.4236 37.626M97.7424 38.3706C97.7472 38.2766 97.7311 38.1826 97.6954 38.0959C97.6596 38.0092 97.6052 37.932 97.5361 37.8702C97.3628 37.7438 97.1526 37.6823 96.9406 37.696H96.2303V39.0412H96.9406C97.153 39.0552 97.3634 38.9929 97.5361 38.865C97.6055 38.8048 97.6603 38.7288 97.6961 38.6429C97.7319 38.5571 97.7478 38.4639 97.7424 38.3706Z" fill="#000072"/>
<path d="M93.0272 37.6961L93.0311 40.8367H92.165V36.9674H94.8215L94.8157 37.6961H93.0272Z" fill="#000072"/>
<path d="M91.3613 30.7382H92.2332V32.2635H93.9419V30.7382H94.8138V34.6075H93.9419V33.0201H92.2332V34.6075H91.3613V30.7382Z" fill="#000072"/>
<path d="M91.2251 37.8762C91.3565 38.0978 91.4443 38.3438 91.4832 38.6003C91.5222 38.8567 91.5116 39.1186 91.4522 39.3708C91.3927 39.6231 91.2855 39.8608 91.1367 40.0704C90.9879 40.2801 90.8003 40.4575 90.5848 40.5925C90.5556 40.6105 90.5264 40.6286 90.4953 40.6446C90.1678 40.8144 89.8062 40.9028 89.4395 40.9028C89.0728 40.9028 88.7112 40.8144 88.3837 40.6446C88.0793 40.4796 87.8248 40.2317 87.6481 39.928C87.473 39.6161 87.3809 39.2622 87.3809 38.9021C87.3809 38.5419 87.473 38.1881 87.6481 37.8762C87.8243 37.5726 88.079 37.3252 88.3837 37.1616C88.7104 36.989 89.0723 36.8989 89.4395 36.8989C89.8067 36.8989 90.1687 36.989 90.4953 37.1616C90.7993 37.3263 91.0537 37.5735 91.2309 37.8762M90.6179 38.9011C90.6221 38.6774 90.5691 38.4565 90.4642 38.2605C90.3668 38.0761 90.2203 37.924 90.0418 37.8222C89.858 37.7168 89.651 37.6615 89.4405 37.6615C89.23 37.6615 89.023 37.7168 88.8391 37.8222C88.6615 37.9251 88.5153 38.0769 88.4168 38.2605C88.3162 38.4586 88.2637 38.6787 88.2637 38.9021C88.2637 39.1255 88.3162 39.3456 88.4168 39.5436C88.5157 39.7274 88.6618 39.8798 88.8391 39.984C89.0239 40.0865 89.2306 40.1402 89.4405 40.1402C89.6504 40.1402 89.8571 40.0865 90.0418 39.984C90.22 39.8809 90.3663 39.7283 90.4642 39.5436C90.5691 39.3469 90.6221 39.1254 90.6179 38.9011Z" fill="#000072"/>
<path d="M86.9688 30.7382H87.8406V32.2635H89.5493V30.7382H90.4212V34.6075H89.5493V33.0201H87.8406V34.6075H86.9688V30.7382Z" fill="#000072"/>
<path d="M87.9165 4.64145V9.92004H79.4742V24.839H72.9663V4.64145H87.9165Z" fill="#000072"/>
<path d="M87.144 36.9674V37.6961H85.9413V40.8367H85.0792V37.6961H83.8804V36.9674H87.144Z" fill="#000072"/>
<path d="M84.2171 32.2975H85.9647V32.9941H84.2171V33.8889H86.2664V34.6095H83.3511V30.7382H86.1963V31.4548H84.2171V32.2975Z" fill="#000072"/>
<path d="M83.5959 37.626C83.7234 37.8522 83.7905 38.1091 83.7905 38.3706C83.7905 38.6321 83.7234 38.889 83.5959 39.1153C83.4575 39.3317 83.2598 39.501 83.0276 39.6017C82.7538 39.7202 82.4586 39.7775 82.1616 39.7698H81.4007V40.8367H80.5308V36.9674H82.1616C82.4588 36.9595 82.7542 37.0175 83.0276 37.1376C83.2595 37.2397 83.457 37.4095 83.5959 37.626ZM82.905 38.3706C82.9126 38.2765 82.899 38.1819 82.8652 38.094C82.8315 38.0062 82.7785 37.9275 82.7104 37.8642C82.5371 37.7378 82.3269 37.6763 82.1149 37.69H81.4026V39.0352H82.1149C82.3266 39.0513 82.5371 38.9911 82.7104 38.865C82.7795 38.8046 82.8339 38.7285 82.8694 38.6426C82.9048 38.5568 82.9204 38.4637 82.9148 38.3706" fill="#000072"/>
<path d="M82.6619 33.5206C82.6681 33.6757 82.6369 33.83 82.571 33.9697C82.5051 34.1095 82.4066 34.2302 82.2844 34.3213C81.962 34.5332 81.5821 34.6336 81.2004 34.6075H79.3457V30.7382H81.0972C81.4561 30.7169 81.8129 30.8076 82.1209 30.9984C82.2377 31.0799 82.3324 31.1906 82.3961 31.3202C82.4598 31.4498 82.4903 31.5939 82.4848 31.739C82.4886 31.9179 82.4398 32.0937 82.3447 32.2435C82.2486 32.3937 82.1138 32.5136 81.9555 32.5898C82.1605 32.646 82.3439 32.7655 82.4809 32.9321C82.6054 33.101 82.67 33.3087 82.6639 33.5206M81.7823 33.4465C81.7823 33.1262 81.5876 32.9661 81.1692 32.9661H80.2137V33.9449H81.1692C81.5799 33.9449 81.7823 33.7788 81.7823 33.4465ZM81.4553 32.2234C81.5003 32.1792 81.5364 32.1262 81.5614 32.0675C81.5863 32.0089 81.5998 31.9457 81.6009 31.8817C81.6019 31.8176 81.5907 31.754 81.5677 31.6945C81.5447 31.6349 81.5105 31.5807 81.467 31.5348L81.4553 31.5228C81.3303 31.4332 81.1792 31.3901 81.0272 31.4007H80.2156V32.3415H81.0272C81.1793 32.3522 81.3306 32.3107 81.4573 32.2234" fill="#000072"/>
<path d="M78.3475 36.9674L80.0309 40.8367H79.1181L78.7853 40.008H77.0338L76.6991 40.8367H75.8992L75.8447 40.7507L77.4853 36.9674H78.3475ZM78.5109 39.3274L77.9135 37.8462L77.316 39.3274H78.5109Z" fill="#000072"/>
<path d="M75.5352 30.7382H78.7988V31.4688H77.5942V34.6075H76.732V31.4688H75.5352V30.7382Z" fill="#000072"/>
<path d="M75.8115 40.8367L75.8492 40.7507L75.9046 40.8367H75.8115Z" fill="#000072"/>
<path d="M74.9126 40.8367L73.9337 39.2774H73.3323V40.8367H72.4663V36.9674H73.3323V38.5328H73.957L74.9457 36.9674H75.8662L74.6343 38.835L75.8487 40.7507L75.8117 40.8367H74.9126Z" fill="#000072"/>
<path d="M75.3894 31.3567L74.8308 31.8872C74.7161 31.7438 74.5716 31.6287 74.4079 31.5504C74.2442 31.4721 74.0655 31.4326 73.885 31.4348C73.6669 31.4305 73.4515 31.485 73.2603 31.5929C73.0806 31.6951 72.9323 31.8469 72.8322 32.0313C72.7328 32.2297 72.681 32.4497 72.681 32.6729C72.681 32.896 72.7328 33.116 72.8322 33.3144C72.9323 33.4988 73.0806 33.6506 73.2603 33.7528C73.4514 33.8613 73.6668 33.9165 73.885 33.9129C74.0663 33.9149 74.2456 33.8744 74.4094 33.7947C74.5733 33.7149 74.7174 33.5979 74.8308 33.4525L75.3894 33.983C75.211 34.208 74.9819 34.3846 74.7218 34.4974C74.4412 34.6194 74.139 34.68 73.8344 34.6756C73.4723 34.6813 73.1148 34.5925 72.7952 34.4174C72.4919 34.253 72.2387 34.0057 72.0634 33.7028C71.8903 33.3883 71.7993 33.0332 71.7993 32.6719C71.7993 32.3105 71.8903 31.9554 72.0634 31.641C72.2388 31.3386 72.4921 31.0919 72.7952 30.9283C73.1171 30.7541 73.4765 30.666 73.8403 30.6721C74.144 30.6681 74.4453 30.7281 74.7257 30.8483C74.9829 30.9614 75.2103 31.1356 75.3894 31.3567Z" fill="#000072"/>
<path d="M71.2282 31.3947C71.3572 31.6208 71.4252 31.8782 71.4252 32.1404C71.4252 32.4025 71.3572 32.6599 71.2282 32.886C71.0899 33.1025 70.8921 33.2718 70.66 33.3724C70.3854 33.4909 70.0896 33.5482 69.792 33.5406H69.0349V34.6075H68.1631V30.7382H69.792C70.0898 30.7302 70.3859 30.7882 70.66 30.9083C70.8902 31.012 71.0873 31.1806 71.2282 31.3947ZM70.5452 32.1434C70.5508 32.0491 70.5353 31.9548 70.4998 31.8677C70.4644 31.7806 70.41 31.703 70.3408 31.6409C70.1674 31.5132 69.956 31.4523 69.7433 31.4688H69.0349V32.812H69.7433C69.956 32.8257 70.1668 32.7642 70.3408 32.6378C70.409 32.5767 70.4629 32.5004 70.4983 32.4148C70.5337 32.3291 70.5497 32.2363 70.5452 32.1434Z" fill="#000072"/>
<path d="M69.1595 40.8367V38.3206L67.3652 40.8367H66.542V36.9674H67.408V39.4896L69.2043 36.9674H70.0197V40.8367H69.1595Z" fill="#000072"/>
<path d="M56.4981 15.1446L58.2107 12.4823L63.4283 4.64145H69.4866V24.839H62.9787V14.3659L56.247 24.839H50.0447H49.9902V4.64145H56.4981V15.0565V15.1446Z" fill="#000072"/>
<path d="M65.9738 30.7382L67.6553 34.6075H66.7523L66.4175 33.7788H64.666L64.3332 34.6075H63.4438L65.1195 30.7382H65.9738ZM66.1353 33.1002L65.5359 31.6169L64.9404 33.1002H66.1353Z" fill="#000072"/>
<path d="M63.2259 40.8367V38.3206L61.4297 40.8367H60.6064V36.9674H61.4744V39.4896L63.2688 36.9674H64.0861V40.8367H63.2259Z" fill="#000072"/>
<path d="M63.2493 33.8789V35.4102H62.4417V34.6095H59.7871V35.4102H58.9795V33.8789H59.1313C59.357 33.8789 59.5205 33.7007 59.6081 33.3685C59.7192 32.9039 59.7773 32.4276 59.7813 31.9492L59.8241 30.7482H62.7161V33.8889L63.2493 33.8789ZM61.8617 33.8789V31.4648H60.5714L60.5559 32.0273C60.5446 32.4152 60.5069 32.8018 60.443 33.1843C60.4105 33.4332 60.3197 33.6702 60.1783 33.8749L61.8617 33.8789Z" fill="#000072"/>
<path d="M58.8119 40.8367V38.3206L57.0156 40.8367H56.1943V36.9674H57.0584V39.4896L58.8547 36.9674H59.6721V40.8367H58.8119Z" fill="#000072"/>
<path d="M59.0127 30.7382L57.411 33.8008C57.2807 34.0672 57.0897 34.2972 56.8544 34.4714C56.6468 34.6191 56.4003 34.6981 56.1479 34.6976C55.9372 34.6949 55.729 34.6501 55.5349 34.5655L55.7432 33.8849C55.8652 33.9268 55.9922 33.951 56.1207 33.957C56.2226 33.9577 56.3228 33.93 56.4107 33.8769C56.5062 33.811 56.5871 33.725 56.6481 33.6247L56.6792 33.5806L55.1963 30.7382H56.1265L57.1249 32.818L58.1583 30.7382H59.0127Z" fill="#000072"/>
<path d="M55.3188 39.1813C55.4464 39.3535 55.5121 39.5657 55.5051 39.782C55.498 39.9983 55.4184 40.2054 55.2799 40.3683C55.1129 40.5534 54.9025 40.6913 54.6688 40.7687C54.3986 40.8651 54.1141 40.9125 53.8281 40.9088C53.5656 40.9086 53.3041 40.875 53.0496 40.8087C52.7944 40.7427 52.5494 40.6403 52.3218 40.5044L52.5903 39.8619C52.7594 39.9683 52.9431 40.0479 53.1353 40.0981C53.3257 40.1506 53.5219 40.1776 53.7191 40.1782C53.9421 40.1859 54.1635 40.1364 54.3633 40.0341C54.4385 39.9993 54.5024 39.9431 54.5476 39.8722C54.5928 39.8013 54.6173 39.7185 54.6182 39.6337C54.6199 39.5685 54.6046 39.504 54.5738 39.4469C54.543 39.3899 54.4978 39.3424 54.4431 39.3094C54.2978 39.2278 54.1335 39.189 53.9682 39.1973H53.0477V38.5228H53.9079C54.0532 38.5312 54.1974 38.4927 54.3205 38.4127C54.3673 38.3783 54.4052 38.3325 54.4307 38.2794C54.4561 38.2263 54.4684 38.1676 54.4664 38.1084C54.466 38.035 54.446 37.9632 54.4086 37.9007C54.3712 37.8382 54.3178 37.7875 54.2543 37.7541C54.087 37.6622 53.8989 37.618 53.7094 37.626C53.5367 37.6282 53.3648 37.6517 53.1975 37.6961C53.0231 37.7403 52.855 37.8076 52.6974 37.8962L52.4327 37.1996C52.832 36.9876 53.2756 36.8791 53.7249 36.8834C54.0014 36.8818 54.2763 36.9271 54.5384 37.0175C54.7622 37.0922 54.9634 37.2253 55.1223 37.4038C55.2677 37.5676 55.3465 37.7825 55.3422 38.0043C55.3463 38.181 55.2951 38.3543 55.1962 38.4987C55.0995 38.6445 54.9645 38.759 54.807 38.829C55.0087 38.895 55.1869 39.0211 55.3188 39.1913" fill="#000072"/>
<path d="M55.1204 31.3567L54.5618 31.8872C54.4471 31.7438 54.3026 31.6287 54.1389 31.5504C53.9752 31.4721 53.7965 31.4326 53.616 31.4348C53.3979 31.4305 53.1826 31.485 52.9913 31.5929C52.8112 31.6944 52.6627 31.8465 52.5632 32.0313C52.4626 32.2293 52.41 32.4494 52.41 32.6729C52.41 32.8963 52.4626 33.1164 52.5632 33.3144C52.6627 33.4993 52.8112 33.6513 52.9913 33.7528C53.1824 33.8613 53.3978 33.9165 53.616 33.9129C53.7973 33.9149 53.9766 33.8744 54.1404 33.7947C54.3043 33.7149 54.4484 33.5979 54.5618 33.4525L55.1204 33.983C54.9419 34.207 54.7136 34.3835 54.4548 34.4974C54.1741 34.6192 53.872 34.6798 53.5674 34.6756C53.2047 34.6808 52.8467 34.592 52.5262 34.4174C52.2227 34.2541 51.9698 34.0065 51.7964 33.7028C51.6205 33.3893 51.5278 33.0338 51.5278 32.6719C51.5278 32.3099 51.6205 31.9544 51.7964 31.641C51.9699 31.3378 52.2228 31.0909 52.5262 30.9283C52.8481 30.7541 53.2075 30.666 53.5713 30.6721C53.875 30.6681 54.1763 30.7281 54.4567 30.8483C54.7135 30.9621 54.9408 31.1363 55.1204 31.3567Z" fill="#000072"/>
<path d="M51.6601 38.5268V39.2234H49.9144V40.1181H51.9617V40.8367H49.0483V36.9674H51.8936V37.686H49.9144V38.5268H51.6601Z" fill="#000072"/>
<path d="M50.8447 31.647C51.0206 31.9586 51.1132 32.3125 51.1132 32.6729C51.1132 33.0332 51.0206 33.3871 50.8447 33.6987C50.6677 34.0015 50.4141 34.2492 50.111 34.4154C49.7838 34.586 49.4221 34.6749 49.0552 34.6749C48.6884 34.6749 48.3267 34.586 47.9995 34.4154C47.694 34.2511 47.4388 34.003 47.2619 33.6987C47.0868 33.3868 46.9946 33.033 46.9946 32.6729C46.9946 32.3127 47.0868 31.9589 47.2619 31.647C47.4388 31.3427 47.694 31.0947 47.9995 30.9303C48.3269 30.7605 48.6885 30.6721 49.0552 30.6721C49.422 30.6721 49.7836 30.7605 50.111 30.9303C50.4141 31.0965 50.6677 31.3442 50.8447 31.647ZM50.2317 32.6658C50.2356 32.4424 50.1833 32.2218 50.0799 32.0253C49.981 31.8415 49.8349 31.6891 49.6576 31.5849C49.4724 31.4824 49.2655 31.4288 49.0552 31.4288C48.845 31.4288 48.638 31.4824 48.4529 31.5849C48.2756 31.6891 48.1295 31.8415 48.0306 32.0253C47.93 32.2233 47.8774 32.4434 47.8774 32.6668C47.8774 32.8903 47.93 33.1104 48.0306 33.3084C48.1306 33.4928 48.279 33.6447 48.4587 33.7468C48.643 33.8521 48.8503 33.9074 49.0611 33.9074C49.2719 33.9074 49.4792 33.8521 49.6634 33.7468C49.841 33.6438 49.9873 33.492 50.0857 33.3084C50.19 33.1115 50.2424 32.89 50.2375 32.6658" fill="#000072"/>
<path d="M48.4588 40.1081V41.6394H47.6531V40.8387H44.9986V41.6394H44.1929V40.1081H44.3427C44.5685 40.1081 44.7319 39.932 44.8215 39.5997C44.9319 39.1344 44.9894 38.6574 44.9927 38.1785L45.0375 36.9774H47.9294V40.1181L48.4588 40.1081ZM47.0731 40.1081V37.6961H45.7829L45.7654 38.2605C45.755 38.6492 45.7173 39.0365 45.6525 39.4195C45.6216 39.6679 45.5313 39.9044 45.3898 40.1081H47.0731Z" fill="#000072"/>
<path d="M47.1042 31.4688H45.3138L45.3196 34.6075H44.4536V30.7382H47.1101L47.1042 31.4688Z" fill="#000072"/>
<path d="M27.0142 4.64145H33.522V15.1446L40.2848 4.64145H46.5105V24.839H40.0026V14.3659L33.271 24.839H27.0142V4.64145Z" fill="#000072"/>
<path d="M43.747 37.8762C44.0116 38.324 44.0923 38.8616 43.9715 39.3706C43.8507 39.8796 43.5382 40.3184 43.1029 40.5905L43.0095 40.6446C42.682 40.8144 42.3204 40.9028 41.9537 40.9028C41.587 40.9028 41.2254 40.8144 40.8979 40.6446C40.5934 40.4796 40.3389 40.2317 40.1623 39.928C39.9872 39.616 39.895 39.2622 39.895 38.9021C39.895 38.5419 39.9872 38.1881 40.1623 37.8762C40.3385 37.5726 40.5932 37.3252 40.8979 37.1616C41.2245 36.989 41.5865 36.8989 41.9537 36.8989C42.3209 36.8989 42.6828 36.989 43.0095 37.1616C43.3134 37.3263 43.5678 37.5735 43.7451 37.8762M43.1321 38.9011C43.136 38.6777 43.0837 38.457 42.9803 38.2605C42.8807 38.0778 42.7347 37.9263 42.558 37.8222C42.3736 37.7172 42.1663 37.6621 41.9556 37.6621C41.7449 37.6621 41.5377 37.7172 41.3533 37.8222C41.1747 37.9245 41.0277 38.0764 40.929 38.2605C40.8297 38.4589 40.7779 38.6789 40.7779 38.9021C40.7779 39.1253 40.8297 39.3452 40.929 39.5436C41.0287 39.7275 41.1754 39.8798 41.3533 39.984C41.5367 40.0902 41.7443 40.1441 41.9547 40.1401C42.1655 40.1429 42.3735 40.089 42.558 39.984C42.7344 39.8786 42.8803 39.7266 42.9803 39.5436C43.0835 39.3463 43.1358 39.1251 43.1321 38.9011Z" fill="#000072"/>
<path d="M41.9958 34.6075H41.1376V32.0933L39.3413 34.6075H38.5181V30.7382H39.3841V33.2604L41.1804 30.7382H41.9958V34.6075Z" fill="#000072"/>
<path d="M40.6933 29.6432H41.2967C41.303 29.7617 41.2823 29.8801 41.2363 29.9891C41.1903 30.0981 41.1201 30.1949 41.0314 30.2718C40.8195 30.4229 40.5646 30.4989 40.3062 30.488V30.0456C40.4077 30.0437 40.5058 30.0078 40.5852 29.9435C40.625 29.9051 40.6562 29.8584 40.6765 29.8065C40.6969 29.7547 40.706 29.699 40.7032 29.6432" fill="#000072"/>
<path d="M40.3061 30.0456V30.4879H40.2458C39.5568 30.4879 39.2085 30.2037 39.2026 29.6412H39.7982C39.7982 29.9094 39.9538 30.0416 40.2458 30.0416H40.2964" fill="#000072"/>
<path d="M39.1659 38.5268V39.2234H37.4183V40.1181H39.4675V40.8367H36.5522V36.9674H39.3975V37.686H37.4183V38.5268H39.1659Z" fill="#000072"/>
<path d="M37.5817 34.6075H36.7215V32.0933L34.9272 34.6075H34.104V30.7382H34.9681V33.2604L36.7644 30.7382H37.5817V34.6075Z" fill="#000072"/>
<path d="M34.2264 37.6961L34.2303 40.8367H33.3643V36.9674H36.0207L36.0149 37.6961H34.2264Z" fill="#000072"/>
<path d="M31.1243 34.6075H30.2603V30.7382H31.1243V32.3015H31.749L32.7377 30.7382H33.6582L32.4263 32.6078L33.6971 34.6075H32.7065L31.7276 33.0502H31.1243V34.6075Z" fill="#000072"/>
<path d="M29.7019 31.3567L29.1414 31.8872C29.0267 31.7438 28.8822 31.6287 28.7185 31.5504C28.5548 31.4721 28.3761 31.4326 28.1956 31.4348C27.9781 31.4305 27.7634 31.485 27.5728 31.5929C27.3919 31.6934 27.2431 31.8457 27.1447 32.0313C27.0453 32.2297 26.9935 32.4497 26.9935 32.6729C26.9935 32.8961 27.0453 33.116 27.1447 33.3144C27.2431 33.5001 27.3919 33.6524 27.5728 33.7528C27.7632 33.8613 27.9779 33.9165 28.1956 33.9129C28.3768 33.9149 28.5562 33.8745 28.72 33.7947C28.8838 33.7149 29.0279 33.5979 29.1414 33.4525L29.7019 33.983C29.5229 34.2073 29.2939 34.3838 29.0344 34.4975C28.7537 34.6194 28.4515 34.68 28.1469 34.6756C27.7843 34.6808 27.4262 34.592 27.1057 34.4174C26.8031 34.2529 26.5505 34.0056 26.3759 33.7028C26.201 33.389 26.1089 33.0336 26.1089 32.6719C26.1089 32.3101 26.201 31.9547 26.3759 31.641C26.5511 31.3391 26.8036 31.0926 27.1057 30.9283C27.4284 30.7543 27.7884 30.6662 28.1528 30.6721C28.4565 30.6681 28.7578 30.7281 29.0383 30.8483C29.295 30.9621 29.5223 31.1363 29.7019 31.3567Z" fill="#000072"/>
<path d="M25.6887 33.5206C25.6947 33.6759 25.6632 33.8303 25.5969 33.9701C25.5307 34.1098 25.4319 34.2305 25.3092 34.3213C24.9869 34.5333 24.607 34.6336 24.2252 34.6075H22.3608V30.7382H24.1124C24.4707 30.7169 24.8268 30.8076 25.1341 30.9984C25.2518 31.0791 25.3473 31.1897 25.4114 31.3194C25.4755 31.4491 25.506 31.5937 25.4999 31.739C25.5038 31.9179 25.4549 32.0937 25.3598 32.2435C25.2632 32.3933 25.1286 32.5131 24.9706 32.5898C25.177 32.6439 25.3616 32.7637 25.498 32.9321C25.6225 33.101 25.687 33.3087 25.6809 33.5206M24.7993 33.4465C24.7993 33.1263 24.6047 32.9661 24.1844 32.9661H23.2308V33.945H24.1844C24.595 33.945 24.7993 33.7788 24.7993 33.4465ZM24.4724 32.2235C24.5212 32.1801 24.5595 32.1258 24.5845 32.0647C24.6095 32.0035 24.6204 31.9373 24.6164 31.8712C24.6206 31.8052 24.6093 31.7391 24.5836 31.6785C24.5578 31.6179 24.5184 31.5646 24.4685 31.5229C24.3435 31.4332 24.1924 31.3901 24.0403 31.4008H23.2308V32.3416H24.0403C24.1931 32.3521 24.3449 32.3106 24.4724 32.2235Z" fill="#000072"/>
<path d="M5.44138 4.64145L11.8383 15.4048L18.0659 4.64145H23.5093L23.5638 24.839H17.5327L17.4763 15.635L13.2123 23.0215H10.295L6.03106 15.9513V24.839H0V4.64145H5.44138Z" fill="#000072"/>
<path d="M21.4209 31.647C21.5967 31.9586 21.6893 32.3125 21.6893 32.6729C21.6893 33.0332 21.5967 33.3871 21.4209 33.6987C21.2426 34.0012 20.9885 34.2487 20.6852 34.4154C20.358 34.586 19.9963 34.6749 19.6295 34.6749C19.2626 34.6749 18.9009 34.586 18.5737 34.4154C18.2692 34.2504 18.0147 34.0025 17.8381 33.6987C17.663 33.3868 17.5708 33.033 17.5708 32.6729C17.5708 32.3127 17.663 31.9589 17.8381 31.647C18.0142 31.3428 18.2688 31.0947 18.5737 30.9303C18.9011 30.7605 19.2627 30.6721 19.6295 30.6721C19.9962 30.6721 20.3578 30.7605 20.6852 30.9303C20.9889 31.0965 21.2431 31.3441 21.4209 31.647ZM20.8078 32.6658C20.812 32.4422 20.759 32.2213 20.6541 32.0253C20.5552 31.8415 20.4091 31.6891 20.2318 31.5849C20.047 31.4824 19.8404 31.4288 19.6304 31.4288C19.4205 31.4288 19.2139 31.4824 19.0291 31.5849C18.8508 31.6885 18.7039 31.841 18.6048 32.0253C18.5055 32.2237 18.4536 32.4437 18.4536 32.6668C18.4536 32.89 18.5055 33.11 18.6048 33.3084C18.7035 33.4926 18.8505 33.6445 19.0291 33.7468C19.213 33.8521 19.42 33.9074 19.6304 33.9074C19.8409 33.9074 20.0479 33.8521 20.2318 33.7468C20.4099 33.6444 20.5562 33.4925 20.6541 33.3084C20.759 33.1117 20.812 32.8902 20.8078 32.6658Z" fill="#000072"/>
<path d="M14.8724 34.6075H14.0063V30.7382H14.8724V32.3015H15.4971L16.4857 30.7382H17.4062L16.1743 32.6078L17.4432 34.6075H16.4526L15.4737 33.0502H14.8724V34.6075Z" fill="#000072"/>
<path d="M13.448 31.3567L12.8894 31.8872C12.7747 31.7438 12.6302 31.6287 12.4665 31.5504C12.3028 31.4721 12.1241 31.4326 11.9436 31.4348C11.7255 31.4305 11.5101 31.485 11.3189 31.5929C11.1392 31.695 10.9909 31.8469 10.8908 32.0313C10.7914 32.2297 10.7396 32.4497 10.7396 32.6728C10.7396 32.896 10.7914 33.116 10.8908 33.3144C10.9909 33.4988 11.1392 33.6506 11.3189 33.7528C11.51 33.8613 11.7254 33.9165 11.9436 33.9129C12.1249 33.9149 12.3042 33.8744 12.468 33.7947C12.6319 33.7149 12.776 33.5979 12.8894 33.4525L13.448 33.983C13.2704 34.2079 13.0418 34.3845 12.7824 34.4974C12.5017 34.6192 12.1996 34.6798 11.895 34.6756C11.5329 34.6813 11.1753 34.5925 10.8557 34.4174C10.5506 34.2543 10.2958 34.0068 10.1201 33.7027C9.9451 33.389 9.85303 33.0336 9.85303 32.6718C9.85303 32.3101 9.9451 31.9547 10.1201 31.6409C10.2949 31.3381 10.5483 31.0913 10.8518 30.9283C11.1742 30.7506 11.5351 30.6597 11.9008 30.6641C12.2039 30.6602 12.5046 30.7201 12.7843 30.8402C13.0419 30.9528 13.2694 31.1271 13.448 31.3487" fill="#000072"/>
<path d="M9.1743 31.647C9.43882 32.0948 9.51955 32.6323 9.39875 33.1414C9.27794 33.6504 8.96549 34.0892 8.53013 34.3613L8.43866 34.4154C8.11143 34.586 7.74974 34.6749 7.38288 34.6749C7.01603 34.6749 6.65433 34.586 6.32711 34.4154C6.02264 34.2504 5.76814 34.0025 5.59147 33.6987C5.41639 33.3868 5.32422 33.033 5.32422 32.6729C5.32422 32.3127 5.41639 31.9589 5.59147 31.647C5.76758 31.3428 6.02222 31.0947 6.32711 30.9303C6.65456 30.7605 7.01616 30.6721 7.38288 30.6721C7.7496 30.6721 8.11121 30.7605 8.43866 30.9303C8.74232 31.0965 8.99654 31.3441 9.1743 31.647ZM8.56321 32.6658C8.5674 32.4422 8.51438 32.2213 8.40947 32.0253C8.30953 31.8396 8.16038 31.6869 7.97937 31.5849C7.79459 31.4824 7.58795 31.4288 7.37802 31.4288C7.16808 31.4288 6.96144 31.4824 6.77666 31.5849C6.59934 31.6891 6.45326 31.8415 6.35435 32.0253C6.255 32.2237 6.20317 32.4437 6.20317 32.6668C6.20317 32.89 6.255 33.11 6.35435 33.3084C6.45281 33.492 6.59904 33.6438 6.77666 33.7468C6.96054 33.8521 7.16754 33.9074 7.37802 33.9074C7.5885 33.9074 7.79549 33.8521 7.97937 33.7468C8.15783 33.645 8.30433 33.4929 8.40168 33.3084C8.5093 33.1125 8.565 32.8909 8.56321 32.6658Z" fill="#000072"/>
<path d="M2.33537 34.1992L1.22802 32.3356V34.6075H0.410645V30.7382H1.13071L2.53971 33.1443L3.9273 30.7382H4.64737L4.65321 34.6075H3.83389L3.83 32.2915L2.72265 34.1992H2.33537Z" fill="#000072"/>
<path d="M0 27.1986H50V28.3784H0V27.1986Z" fill="url(#paint0_linear_205_693)"/>
<path d="M150 27.1987H100V28.3786H150V27.1987Z" fill="url(#paint1_linear_205_693)"/>
<path d="M100.074 27.1986H49.9097V28.3786H100.074V27.1986Z" fill="#B80000"/>
</g>
<defs>
<linearGradient id="paint0_linear_205_693" x1="50" y1="27.7885" x2="8.02695e-06" y2="27.7885" gradientUnits="userSpaceOnUse">
<stop stop-color="#B80000"/>
<stop offset="1" stop-color="#B80000" stop-opacity="0"/>
</linearGradient>
<linearGradient id="paint1_linear_205_693" x1="100" y1="27.7886" x2="150" y2="27.7886" gradientUnits="userSpaceOnUse">
<stop stop-color="#B80000"/>
<stop offset="1" stop-color="#B80000" stop-opacity="0"/>
</linearGradient>
<clipPath id="clip0_205_693">
<rect width="150" height="45.4545" fill="white"/>
</clipPath>
</defs>
</svg>
